<?xml version="1.0" encoding="UTF-8" standalone="no"?>
<!-- Created with Inkscape (http://www.inkscape.org/) -->

<svg
   width="121.97334mm"
   height="118.00459mm"
   viewBox="0 0 121.97334 118.00458"
   version="1.1"
   id="svg5"
   sodipodi:docname="YD.svg"
   inkscape:version="1.2.1 (9c6d41e410, 2022-07-14)"
   inkscape:export-filename="..\..\..\..\..\Pictures\ypliet denour\yd album art\Logo\yd.svg"
   inkscape:export-xdpi="90"
   inkscape:export-ydpi="90"
   xmlns:inkscape="http://www.inkscape.org/namespaces/inkscape"
   xmlns:sodipodi="http://sodipodi.sourceforge.net/DTD/sodipodi-0.dtd"
   xmlns="http://www.w3.org/2000/svg"
   xmlns:svg="http://www.w3.org/2000/svg">
  <sodipodi:namedview
     id="namedview7"
     pagecolor="#ffffff"
     bordercolor="#111111"
     borderopacity="1"
     inkscape:showpageshadow="0"
     inkscape:pageopacity="0"
     inkscape:pagecheckerboard="true"
     inkscape:deskcolor="#525252"
     inkscape:document-units="mm"
     showgrid="true"
     inkscape:zoom="1.4912879"
     inkscape:cx="175.01651"
     inkscape:cy="196.47447"
     inkscape:window-width="3840"
     inkscape:window-height="2050"
     inkscape:window-x="-12"
     inkscape:window-y="-12"
     inkscape:window-maximized="1"
     inkscape:current-layer="layer1"
     showborder="false"
     borderlayer="false">
    <inkscape:grid
       type="xygrid"
       id="grid113" />
  </sodipodi:namedview>
  <defs
     id="defs2" />
  <g
     inkscape:label="Layer 1"
     inkscape:groupmode="layer"
     id="layer1"
     transform="translate(180.23655,-12.964166)">
    <g
       id="g528"
       inkscape:export-filename="..\..\..\..\..\Pictures\ypliet denour\yd album art\Logo\YD.svg"
       inkscape:export-xdpi="300"
       inkscape:export-ydpi="300"
       style="fill:#000000;fill-opacity:1">
      <g
         id="g532"
         inkscape:export-filename="..\YD.png"
         inkscape:export-xdpi="600"
         inkscape:export-ydpi="600"
         style="fill:#000000;fill-opacity:1">
        <path
           id="path115-8"
           style="fill:#000000;stroke:#000000;stroke-width:0.265;stroke-dasharray:none;stroke-opacity:1;fill-opacity:1"
           d="m -143.19488,12.964166 c -3.96875,2e-6 -5.43154,1.322917 -5.42417,5.159164 l 0.1325,68.924166 -13.22917,13.229174 2.64584,2.64583 -13.22917,13.22917 7.9375,7.9375 37.04167,-37.041674 V 76.464163 L -137.90322,65.88083 v -31.75 l 10.58334,-10.583334 V 12.964163 h -10.58334 z m 39.555,13.096664 -28.97167,29.236666 v 5.291667 l 5.29167,5.291667 28.97166,-29.236667 c 2.63376,-2.657852 5.291758,-2.667733 7.9375,-2.645833 l 16.007508,0.1325 V 23.547496 l -21.299174,-0.1325 c -2.645834,0 -5.291664,0 -7.937494,2.645834 z"
           sodipodi:nodetypes="ssccccccccccccsccccsscccc"
           inkscape:export-filename="..\path115-8.ICO.png"
           inkscape:export-xdpi="13.038799"
           inkscape:export-ydpi="13.038799" />
        <path
           style="fill:#000000;fill-opacity:1;stroke:#000000;stroke-width:0.264999;stroke-dasharray:none;stroke-opacity:1"
           d="m -180.23655,105.56833 v -7.937497 l 7.9375,0 c 2.64583,0 2.64583,0 5.29167,2.645837 l 2.64583,2.64583 -10.58333,10.58333 -2.64584,-2.64583 c -2.64583,-2.64583 -2.64583,-2.64584 -2.64583,-5.29167 z"
           id="path5517-2"
           sodipodi:nodetypes="ccsscccc" />
      </g>
    </g>
    <path
       id="path383"
       style="fill:#000000;stroke:#000000;stroke-width:0.264999;fill-opacity:1"
       d="m -100.86155,47.359999 v 9.260417 l -21.16667,21.166667 v 10.583334 l -7.9375,7.937499 c -2.64583,2.645834 -2.64583,2.645833 -2.64583,5.291664 v 15.875 c 0,2.64584 0,2.64584 2.64583,5.29167 l 7.9375,7.9375 h 31.750003 c 2.645834,0 2.645834,0 5.291667,-2.64583 0,0 1.012155,-1.01216 2.692037,-2.69204 l 21.120463,-21.12046 c 2.645833,-2.64584 2.645833,-2.64584 2.645833,-5.291671 v -39.6875 h -9.260416 l -9.260417,-9.260416 c -2.645833,-2.645834 -5.291667,-2.645834 -7.9375,-2.645834 z m 9.260417,15.875 h 6.614583 c 2.645834,0 5.291666,0 7.9375,2.645834 l 5.291667,5.291666 h 2.645833 v 22.489584 c 0,2.645833 0,2.645833 -2.645833,5.291666 l -19.84375,19.843751 c -2.645834,2.64583 -2.645834,2.64583 -5.291667,2.64583 h -14.55208 V 83.078748 Z m -27.781247,34.395832 v 23.812509 l -2.64584,-2.64584 c -2.64583,-2.64583 -2.64583,-2.64583 -2.64583,-5.29167 v -7.9375 c 0,-2.64583 0,-2.64583 2.64583,-5.29166 z"
       sodipodi:nodetypes="ccccsscccsscccccssccsscccccccccccccssc" />
  </g>
</svg>
