<?xml version="1.0" encoding="UTF-8" standalone="no"?>
<!-- Created with Inkscape (http://www.inkscape.org/) -->

<svg
   width="524.13995mm"
   height="116.73654mm"
   viewBox="0 0 524.13995 116.73654"
   version="1.1"
   id="svg5"
   sodipodi:docname="ypliet denour logo.svg"
   inkscape:version="1.2.1 (9c6d41e410, 2022-07-14)"
   inkscape:export-filename="..\..\Pictures\yd album art\1k ypliet denour logo V2.svg"
   inkscape:export-xdpi="90"
   inkscape:export-ydpi="90"
   xml:space="preserve"
   xmlns:inkscape="http://www.inkscape.org/namespaces/inkscape"
   xmlns:sodipodi="http://sodipodi.sourceforge.net/DTD/sodipodi-0.dtd"
   xmlns="http://www.w3.org/2000/svg"
   xmlns:svg="http://www.w3.org/2000/svg"><sodipodi:namedview
     id="namedview7"
     pagecolor="#ffffff"
     bordercolor="#111111"
     borderopacity="1"
     inkscape:showpageshadow="0"
     inkscape:pageopacity="0"
     inkscape:pagecheckerboard="1"
     inkscape:deskcolor="#d1d1d1"
     inkscape:document-units="mm"
     showgrid="true"
     inkscape:zoom="1.0544998"
     inkscape:cx="2280.7022"
     inkscape:cy="-40.303469"
     inkscape:window-width="3840"
     inkscape:window-height="2050"
     inkscape:window-x="-12"
     inkscape:window-y="-12"
     inkscape:window-maximized="1"
     inkscape:current-layer="layer1"><inkscape:grid
       type="xygrid"
       id="grid113" /></sodipodi:namedview><defs
     id="defs2" /><g
     inkscape:label="Layer 1"
     inkscape:groupmode="layer"
     id="layer1"
     transform="translate(-354.40919,-15.742501)"><path
       id="path1861"
       style="fill:#000000;fill-opacity:1;stroke:#000000;stroke-width:0.265;stroke-dasharray:none;stroke-opacity:1"
       d="m 448.46874,44.979171 c -2.64583,0 -5.29167,4e-6 -7.9375,2.645833 l -25.13542,25.135417 v 3.96875 l 22.48959,22.489583 v -39.6875 L 452.43749,44.979171 Z M 415.39583,83.343744 V 93.927081 L 396.875,112.44792 v 7.9375 h 1.32292 c 2.64582,0 5.29166,0 7.9375,2.64584 l 9.26041,9.26041 h 7.9375 v -18.52084 l 11.2448,-11.24479 z"
       sodipodi:nodetypes="sscccccsccccssccccc"
       inkscape:export-filename="..\..\Pictures\ypliet denour\yd art\Logo\1k ypliet denour logo linear V1.svg"
       inkscape:export-xdpi="213.09619"
       inkscape:export-ydpi="213.09619" /><path
       id="path1863"
       style="fill:#000000;fill-opacity:1;stroke:#000000;stroke-width:0.265;stroke-dasharray:none;stroke-opacity:1"
       d="m 459.05208,44.979167 -15.875,15.875 -0.13436,11.90625 h 10.7177 c 1.27774,-13.914854 12.39881,-26.28087 26.30692,-27.629838 l 0.15141,-0.151412 z m 26.45834,2.653068 c -14.61244,0 -26.45834,11.842575 -26.45834,26.451098 0,14.608528 11.8459,26.451097 26.45834,26.451097 14.61247,0 26.45833,-11.842569 26.45833,-26.451097 0,-14.608523 -11.84586,-26.451098 -26.45833,-26.451098 z m 0,17.634065 c 4.87083,0 8.81961,3.947526 8.81961,8.817033 0,4.869507 -3.94878,8.817033 -8.81961,8.817033 -4.87081,0 -8.81962,-3.947526 -8.81962,-8.817033 0,-4.869507 3.94881,-8.817033 8.81962,-8.817033 z M 443.17708,75.40625 V 87.3125 l 15.875,15.875 h 21.16667 C 466.3106,101.83852 455.03816,89.321102 453.76042,75.40625 Z m 0,15.875 v 13.22917 l 9.26042,9.26042 3.96875,3.96875 v -13.22917 z m 0,19.84375 v 18.52083 l 2.64584,2.64584 22.49217,-5.2e-4 18.51824,5.2e-4 V 129.64584 127 l -2.64584,-2.64583 h -27.78124 z"
       sodipodi:nodetypes="cccccccsssssssssscccccccccccccccccscccc" /><path
       id="path1865"
       style="fill:#000000;fill-opacity:1;stroke:#000000;stroke-width:0.265;stroke-dasharray:none;stroke-opacity:1"
       d="m 391.58333,15.875 c -3.96873,3e-6 -5.43131,1.323136 -5.42396,5.159375 l 0.1323,64.955208 -13.22917,13.229167 2.64583,2.64583 -13.22916,13.22917 7.9375,7.9375 37.04166,-37.041667 V 75.40625 L 396.875,64.822917 V 37.041667 L 407.45833,26.458333 V 15.875 H 396.875 Z m 47.49271,10.451042 c -2.64583,0 -5.29167,5e-6 -7.9375,2.645833 L 402.16667,58.208333 V 63.5 l 5.29166,5.291667 28.97188,-29.236459 c 2.63375,-2.657846 5.29176,-2.667732 7.9375,-2.645833 l 16.00729,0.132292 h 29.10417 c 2.64582,0 5.29168,2e-5 7.9375,2.645833 l 5.29166,5.291667 h 15.875 v 5.291666 58.208337 l -7.9375,7.9375 H 468.3125 l 5.29167,5.29166 h 47.625 l 2.64583,2.64584 7.9375,-7.9375 -2.64583,-2.64584 V 44.979167 h 37.04166 31.75 L 603.25,50.270833 V 52.916667 63.5 h 5.29167 L 619.125,52.916667 v -7.9375 h 21.16667 V 39.6875 h -10.58334 l -5.29166,-5.291667 H 603.25 570.17708 510.64583 l -5.29166,-5.291666 c -2.64582,-2.645817 -5.29169,-2.645834 -7.9375,-2.645834 H 460.375 Z M 619.125,59.53125 609.86458,68.791667 H 603.25 v 15.875 h 5.29167 L 619.125,74.083333 Z m 0,21.166667 -9.26042,9.260416 H 603.25 L 597.95833,95.25 v 5.29167 5.29166 6.61459 l -3.96875,3.96875 h 6.61459 c 2.64581,0 2.64586,-1e-5 5.29166,-2.64584 l 2.64584,-2.64583 v -5.29167 -4.45709 -0.83457 L 619.125,89.958333 Z m -264.58333,15.875 v 7.937503 c 0,2.64582 0,2.64584 2.64583,5.29166 l 2.64583,2.64584 10.58334,-10.58334 -2.64584,-2.64583 c -2.64581,-2.645831 -2.64585,-2.645833 -5.29166,-2.645833 z m 264.58333,0 -5.29167,5.291663 v 10.58334 l -9.26041,9.26041 V 127 l 5.29166,5.29166 9.26042,-9.26041 z M 534.45833,111.125 v 2.64583 l 2.64584,2.64584 -7.9375,7.9375 5.29167,5.29167 h 2.64583 c 6.56584,0 9.63721,0.11827 10.58333,2.64583 h 52.91667 L 595.3125,127 h -13.22917 l -13.22916,-13.22917 c -2.64584,-2.64582 -10.32891,-2.61997 -13.22917,-2.64583 z m 7.9375,5.29167 h 17.19792 l 2.64583,2.64583 h -17.19791 z m 3.96875,3.96875 h 17.19792 l 2.64583,2.64583 h -17.19791 z m -55.5625,3.96875 2.64584,2.64583 h 10.58333 c 1.32292,0 2.64584,1.32291 3.96875,2.64583 h 17.19792 l -5.29167,-5.29166 z m 13.22917,0 5.29167,5.29166 h 15.875 l -5.29167,-5.29166 z m 46.30208,0 h 17.19792 L 570.17708,127 h -17.19791 z"
       sodipodi:nodetypes="scccccccccccccsccccccccsscccccccccccccccccccccccccccsscccccccccccccccccsscccccccssccssccccccccccccccsccccsccccccccccccccscccccccccccccc" /><path
       id="path1867"
       style="fill:#000000;fill-opacity:1;stroke:#000000;stroke-width:0.265;stroke-dasharray:none;stroke-opacity:1"
       d="m 534.45835,52.916663 v 47.625017 l 5.29167,5.29166 23.81248,-1e-5 c 2.64584,0 5.29167,0 7.9375,2.64584 l 7.9375,7.9375 7.93748,-1e-5 5.42417,-5.15916 -0.1325,-5.42418 -7.93748,1e-5 -7.9375,-7.937511 c -2.64583,-2.645833 -5.29167,-2.645833 -7.9375,-2.645833 l -18.52082,10e-6 -5.29166,-5.291667 v -5.291666 h 19.84375 l 5.29166,-5.291667 V 74.083329 H 545.04169 V 63.499996 h 29.10416 5.29167 c 2.64583,0 2.64583,0 5.29166,-2.645833 2.64584,-2.645834 2.64584,-2.645834 5.29167,-2.645834 l 5.29165,4e-6 -5.42414,-5.42417 z"
       sodipodi:nodetypes="ccccccccccccccccccccccccccc" /><path
       id="path1871"
       style="fill:#000000;fill-opacity:1;stroke:#000000;stroke-width:0.265;stroke-dasharray:none;stroke-opacity:1"
       d="m 661.45833,39.6875 v 7.937499 l -21.16666,21.166667 v 10.583333 l -7.9375,7.9375 c -2.64583,2.645836 -2.64584,2.64583 -2.64584,5.291667 v 15.874994 c 0,2.64584 10e-6,2.64584 2.64584,5.29167 l 7.9375,7.9375 h 31.75 c 2.64582,0 2.64582,-1e-5 5.29166,-2.64584 l 2.69183,-2.69182 21.12067,-21.120667 c 2.64584,-2.645839 2.64584,-2.645833 2.64584,-5.29167 v -2.645834 h 7.9375 L 722.3125,76.729166 h -21.16667 v -15.875 h 63.50001 l -10e-6,37.041667 -10.58333,-21.166667 h -13.22917 l 10e-6,34.395824 h 6.61459 l 2.64583,2.64583 1.32292,1.32292 -1e-5,-22.489574 13.22916,26.458324 h 10.58334 V 84.666667 C 769.94348,84.308264 769.9375,82.57471 769.9375,74.177901 V 50.270833 l -47.625,-1e-6 v 1e-6 h -27.78125 l -7.9375,-7.9375 c -2.64583,-2.645838 -5.29167,-2.645833 -7.9375,-2.645833 z m 9.26042,14.552083 h 6.61458 c 2.64583,0 5.29166,10e-7 7.9375,2.645833 l 3.96876,3.96875 h 3.96875 l -10e-6,23.8125 c 0,2.645827 10e-6,2.645833 -2.64583,5.291667 l -19.84375,19.843747 c -2.64583,2.64583 -2.64584,2.64583 -5.29167,2.64583 H 650.875 V 74.083333 Z m 55.43021,22.357291 -2.64584,2.645834 h 7.9375 l 2.64584,-2.645834 z m 9.26041,2.645834 -10.58333,10.583333 h 7.9375 l 2.64583,-2.645833 z m -14.55208,2.645833 -10.58333,10.583333 h 7.9375 l 10.58333,-10.583333 z m -77.91979,6.746875 v 23.812494 l -2.64583,-2.64583 c -2.64583,-2.64583 -2.64584,-2.64583 -2.64584,-5.29167 v -7.937497 c 0,-2.645824 10e-6,-2.645831 2.64584,-5.291664 z m 61.51562,12.567694 -10.58333,10.58334 4.63021,4.63021 h 21.16667 c 2.6458,0 5.29167,0 7.9375,2.64583 l 7.9375,7.9375 h 15.875 v -5.29167 l -2.64584,-2.64583 -2.64583,-2.64583 h -5.29167 l -7.9375,-7.9375 c -2.6458,-2.6458 -5.29167,-2.64584 -7.9375,-2.64584 h -15.875 z"
       sodipodi:nodetypes="ccccsssscsscsscccccccccccccccccsccccssccssccssssccccccccccccccccccccssssccccssccccccsscc" /><path
       id="path1877"
       style="fill:#000000;fill-opacity:1;stroke:#000000;stroke-width:0.265;stroke-dasharray:none;stroke-opacity:1"
       d="m 812.87028,76.729177 -5.89111,5.291667 v 5.291666 10.583333 11.906247 1.32292 c 0,2.6458 -10e-6,5.29166 -2.64583,7.9375 -2.64581,2.6458 -5.29167,2.64583 -7.9375,2.64583 h -5.29167 v -3.96875 -7.9375 -3.96875 -21.166663 h -10.58333 v 13.229166 23.812497 5.29167 l 5.29166,5.29166 h 5.29167 6.61458 2.64584 c 2.64582,0 6.49353,-1.01778 9.26041,-2.64583 2.14995,-1.26504 4.02663,-3.14171 5.29167,-5.29167 1.62804,-2.76687 2.64583,-6.61459 2.64583,-9.26041 V 112.44792 97.895843 87.31251 l 5.29167,-5.291666 v -5.291667 z"
       sodipodi:nodetypes="cccccsssccccccccccccsssscccccc" /><path
       id="path1905"
       style="fill:#000000;fill-opacity:1;stroke:#000000;stroke-width:0.265;stroke-dasharray:none;stroke-opacity:1"
       d="m 785.8125,34.395833 -10.58333,10.58333 1e-5,23.8125 c 0,10.58332 10e-6,10.58333 10.58333,10.58333 h 10.58334 c 2.64583,0 5.56508,-1.17959 7.9375,-2.64583 2.12196,-1.311444 3.98022,-3.169709 5.29166,-5.29167 1.46624,-2.372426 2.64584,-5.29167 2.64584,-7.9375 l -10e-6,-18.52083 c -10e-6,-10.58332 -10e-6,-10.58333 -10.58334,-10.58333 z m 5.29167,10.58333 h 10.58333 l 10e-6,13.22917 c 0,2.64583 0,5.29166 -2.64583,7.9375 -2.64583,2.64583 -5.29166,2.64583 -7.9375,2.64583 h -5.29167 l -10e-6,-18.52083 z"
       sodipodi:nodetypes="ccsscaacssccccccccc" /><path
       id="path2642"
       style="fill:#000000;fill-opacity:1;stroke:#000000;stroke-width:0.265;stroke-dasharray:none;stroke-opacity:1"
       d="M 822.85417,51.59375 V 56.885417 97.895833 103.1875 127 c 2.64581,0 2.64584,-2e-5 5.29166,-2.64584 l 2.64584,-2.64583 c 2.64582,-2.6458 2.64583,-2.64586 2.64583,-5.29167 V 97.895833 H 857.25 l 5.29167,5.291667 V 127 h 15.875 v -5.29167 L 873.125,116.41666 V 97.895833 L 858.57292,83.34375 857.25,84.666666 c -2.64583,2.645825 -5.29168,2.645834 -7.9375,2.645834 h -15.875 V 67.46875 l 2.64583,-2.645833 c 2.64583,-2.645827 2.64583,-2.645834 5.29167,-2.645834 h 13.22917 c 2.64583,0 2.64584,-2.6e-5 5.29166,-2.645833 l 2.61225,-2.679423 0.0336,-5.258077 z m 50.27083,17.197916 -5.29167,5.291667 -3.96875,-3.96875 h -10.58333 c -2.64584,0 -2.64583,-5e-6 -5.29167,2.645833 l -9.26041,9.260417 h 5.29166 2.64584 c 2.64581,0 5.29168,-6e-6 7.9375,-2.645833 l 3.96875,-3.96875 9.26041,9.260416 2.64584,-2.645833 c 2.64582,-2.645809 2.64583,-2.645829 2.64583,-5.291666 v -2.645834 z"
       sodipodi:nodetypes="cccccssscccccccccssccssscccccccssccssccsscc" /></g></svg>
