<?xml version="1.0" standalone="no"?>
<!DOCTYPE svg PUBLIC "-//W3C//DTD SVG 20010904//EN"
 "http://www.w3.org/TR/2001/REC-SVG-20010904/DTD/svg10.dtd">
<svg version="1.0" xmlns="http://www.w3.org/2000/svg"
 width="96.000000pt" height="96.000000pt" viewBox="0 0 96.000000 96.000000"
 preserveAspectRatio="xMidYMid meet">
<metadata>
Created by potrace 1.10, written by Peter Selinger 2001-2011
</metadata>
<g transform="translate(0.000000,96.000000) scale(0.100000,-0.100000)"
fill="#000000" stroke="none">
<path d="M630 866 l0 -44 -172 -4 c-170 -3 -174 -4 -228 -33 -111 -61 -154
-156 -143 -317 l6 -99 36 3 36 3 5 105 c6 110 18 146 62 187 39 37 73 43 239
43 l159 0 0 -45 c0 -25 2 -45 5 -45 8 0 190 135 193 143 2 7 -182 147 -193
147 -3 0 -5 -20 -5 -44z m117 -88 c13 -15 11 -19 -27 -47 l-43 -31 -29 25
c-29 24 -33 25 -197 25 -164 0 -169 -1 -207 -26 -21 -14 -51 -40 -66 -57 -37
-44 -35 -21 2 25 55 67 102 81 283 86 148 4 161 6 185 27 26 22 28 23 55 7 16
-10 35 -25 44 -34z"/>
<path d="M795 581 c-3 -2 -5 -45 -5 -95 0 -99 -17 -153 -61 -193 -41 -37 -74
-43 -240 -43 l-159 0 0 45 c0 25 -2 45 -5 45 -8 0 -190 -135 -193 -143 -2 -7
182 -147 193 -147 3 0 5 20 5 44 l0 44 173 4 c169 3 173 4 227 33 110 61 154
156 144 315 l-7 96 -34 0 c-18 0 -36 -2 -38 -5z m0 -290 c-40 -79 -134 -110
-332 -111 -115 0 -123 -1 -151 -25 l-29 -25 -42 31 c-47 34 -45 44 13 80 29
18 30 17 58 -7 29 -23 34 -24 197 -24 l167 0 46 29 c26 17 54 41 64 55 22 35
28 33 9 -3z"/>
</g>
</svg>
