<?xml version="1.0" encoding="UTF-8" standalone="no"?>
<!-- Uploaded to: SVG Repo, www.svgrepo.com, Generator: SVG Repo Mixer Tools -->

<svg
   fill="#000000"
   height="351.66934"
   width="799.99731"
   version="1.1"
   id="Layer_1"
   viewBox="0 0 299.99899 131.876"
   xml:space="preserve"
   xmlns="http://www.w3.org/2000/svg"
   xmlns:svg="http://www.w3.org/2000/svg"><defs
   id="defs20" />
<g
   id="XMLID_526_"
   style="fill:#000000;fill-opacity:1"
   transform="translate(0,-84.061996)">
	<path
   id="XMLID_527_"
   d="m 14.492,208.896 c 0.619,0 1.143,-0.509 1.232,-1.226 l 3.365,-26.671 -3.355,-27.278 c -0.1,-0.717 -0.623,-1.23 -1.242,-1.23 -0.635,0 -1.176,0.524 -1.26,1.23 l -2.941,27.278 2.941,26.662 c 0.084,0.716 0.625,1.235 1.26,1.235 z"
   style="fill:#000000;fill-opacity:1" />
	<path
   id="XMLID_530_"
   d="m 3.397,198.752 c 0.608,0 1.101,-0.473 1.19,-1.18 L 7.195,180.998 4.587,164.114 c -0.09,-0.685 -0.582,-1.18 -1.19,-1.18 -0.635,0 -1.127,0.495 -1.217,1.19 L 0,180.999 2.18,197.568 c 0.09,0.701 0.582,1.184 1.217,1.184 z"
   style="fill:#000000;fill-opacity:1" />
	<path
   id="XMLID_531_"
   d="m 27.762,148.644 c -0.08,-0.867 -0.715,-1.5 -1.503,-1.5 -0.782,0 -1.418,0.633 -1.491,1.5 l -2.811,32.355 2.811,31.174 c 0.073,0.862 0.709,1.487 1.491,1.487 0.788,0 1.423,-0.625 1.503,-1.487 l 3.18,-31.174 z"
   style="fill:#000000;fill-opacity:1" />
	<path
   id="XMLID_532_"
   d="m 38.152,214.916 c 0.922,0 1.668,-0.759 1.758,-1.751 l 3.005,-32.156 -3.005,-33.258 c -0.09,-0.999 -0.836,-1.749 -1.758,-1.749 -0.935,0 -1.692,0.751 -1.756,1.754 l -2.656,33.253 2.656,32.156 c 0.064,0.993 0.821,1.751 1.756,1.751 z"
   style="fill:#000000;fill-opacity:1" />
	<path
   id="XMLID_533_"
   d="m 50.127,215.438 c 1.074,0 1.936,-0.86 2.025,-2.011 l -0.01,0.008 2.83,-32.426 -2.83,-30.857 c -0.08,-1.132 -0.941,-2.005 -2.016,-2.005 -1.09,0 -1.947,0.873 -2.012,2.014 l -2.502,30.849 2.502,32.418 c 0.066,1.15 0.923,2.01 2.013,2.01 z"
   style="fill:#000000;fill-opacity:1" />
	<path
   id="XMLID_534_"
   d="m 67.132,181.017 -2.655,-50.172 c -0.074,-1.272 -1.065,-2.286 -2.281,-2.286 -1.207,0 -2.195,1.013 -2.269,2.286 l -2.35,50.172 2.35,32.418 c 0.074,1.278 1.063,2.278 2.269,2.278 1.217,0 2.207,-1 2.281,-2.278 v 0.009 z"
   style="fill:#000000;fill-opacity:1" />
	<path
   id="XMLID_535_"
   d="m 74.386,215.766 c 1.339,0 2.45,-1.111 2.513,-2.529 v 0.021 l 2.482,-32.233 -2.482,-61.656 c -0.063,-1.418 -1.174,-2.529 -2.513,-2.529 -1.37,0 -2.471,1.111 -2.545,2.529 l -2.185,61.656 2.195,32.222 c 0.064,1.408 1.165,2.519 2.535,2.519 z"
   style="fill:#000000;fill-opacity:1" />
	<path
   id="XMLID_536_"
   d="m 86.645,111.435 c -1.508,0 -2.725,1.238 -2.787,2.799 l -2.033,66.801 2.033,31.884 c 0.063,1.553 1.279,2.783 2.787,2.783 1.504,0 2.73,-1.22 2.783,-2.788 v 0.016 l 2.307,-31.895 -2.307,-66.801 c -0.053,-1.571 -1.28,-2.799 -2.783,-2.799 z"
   style="fill:#000000;fill-opacity:1" />
	<path
   id="XMLID_782_"
   d="m 99.01,215.766 c 1.656,0 2.975,-1.336 3.037,-3.056 v 0.019 l 2.133,-31.693 -2.133,-69.045 c -0.063,-1.714 -1.381,-3.056 -3.037,-3.056 -1.666,0 -3.005,1.342 -3.031,3.056 l -1.916,69.045 1.916,31.693 c 0.026,1.701 1.365,3.037 3.031,3.037 z"
   style="fill:#000000;fill-opacity:1" />
	<path
   id="XMLID_783_"
   d="m 111.477,215.734 c 1.787,0 3.237,-1.463 3.291,-3.318 v 0.029 l 1.963,-31.404 -1.963,-67.289 c -0.054,-1.854 -1.504,-3.311 -3.291,-3.311 -1.8,0 -3.25,1.456 -3.303,3.311 l -1.725,67.289 1.736,31.389 c 0.042,1.841 1.492,3.304 3.292,3.304 z"
   style="fill:#000000;fill-opacity:1" />
	<path
   id="XMLID_784_"
   d="m 129.359,181.041 -1.777,-64.836 c -0.043,-2 -1.609,-3.571 -3.551,-3.571 -1.947,0 -3.514,1.571 -3.555,3.584 l -1.594,64.823 1.594,31.198 c 0.041,1.984 1.607,3.556 3.555,3.556 1.941,0 3.508,-1.572 3.551,-3.585 v 0.029 z"
   style="fill:#000000;fill-opacity:1" />
	<path
   id="XMLID_785_"
   d="m 136.682,215.853 c 2.064,0 3.773,-1.717 3.805,-3.828 v 0.017 l 1.613,-30.984 -1.613,-77.153 c -0.031,-2.119 -1.74,-3.833 -3.805,-3.833 -2.063,0 -3.767,1.722 -3.809,3.844 l -1.434,77.111 1.434,31.016 c 0.042,2.093 1.746,3.81 3.809,3.81 z"
   style="fill:#000000;fill-opacity:1" />
	<path
   id="XMLID_786_"
   d="m 149.291,92.814 c -2.229,0 -4.037,1.849 -4.074,4.103 l -1.667,84.151 1.677,30.526 c 0.027,2.225 1.836,4.068 4.064,4.068 2.195,0 4.037,-1.844 4.047,-4.105 v 0.037 l 1.82,-30.526 -1.82,-84.151 c -0.01,-2.262 -1.852,-4.103 -4.047,-4.103 z"
   style="fill:#000000;fill-opacity:1" />
	<path
   id="XMLID_787_"
   d="m 160.82,215.882 c 0.09,0.008 101.623,0.056 102.275,0.056 20.385,0 36.904,-16.722 36.904,-37.357 0,-20.624 -16.52,-37.349 -36.904,-37.349 -5.059,0 -9.879,1.034 -14.275,2.907 -2.922,-33.671 -30.815,-60.077 -64.842,-60.077 -8.318,0 -16.429,1.662 -23.593,4.469 -2.788,1.09 -3.534,2.214 -3.556,4.392 v 118.539 c 0.032,2.29 1.778,4.193 3.991,4.42 z"
   style="fill:#000000;fill-opacity:1" />
</g>
</svg>
